<?xml version="1.0" encoding="UTF-8" standalone="no"?>
<!-- SPDX-License-Identifier: CC-BY-4.0 -->

<svg
   xmlns:dc="http://purl.org/dc/elements/1.1/"
   xmlns:cc="http://creativecommons.org/ns#"
   xmlns:rdf="http://www.w3.org/1999/02/22-rdf-syntax-ns#"
   xmlns:svg="http://www.w3.org/2000/svg"
   xmlns="http://www.w3.org/2000/svg"
   id="svg8"
   version="1.1"
   viewBox="0 0 3.7041667 3.7041667"
   width="14">
   height="14"
  <defs
     id="defs2" />
  <metadata
     id="metadata5">
    <rdf:RDF>
      <cc:Work
         rdf:about="">
        <dc:format>image/svg+xml</dc:format>
        <dc:type
           rdf:resource="http://purl.org/dc/dcmitype/StillImage" />
        <dc:title></dc:title>
      </cc:Work>
    </rdf:RDF>
  </metadata>
  <g
     transform="translate(0,-293.29582)"
     id="layer1">
    <path
       id="rect815"
       d="m 1.8520833,293.56039 c -0.051821,0 -0.1036517,0.0199 -0.1433597,0.0596 l -1.38457827,1.38458 c -0.079416,0.0794 -0.079416,0.20731 0,0.28672 l 1.38457827,1.38458 c 0.079416,0.0794 0.2073034,0.0794 0.2867195,0 l 1.3845783,-1.38458 c 0.079416,-0.0794 0.079416,-0.2073 0,-0.28672 l -1.3845783,-1.38458 c -0.039708,-0.0397 -0.091539,-0.0596 -0.1433598,-0.0596 z m -0.01659,0.77981 c 0.1375027,-0.003 0.2756586,0.0296 0.3997983,0.0967 a 0.22793532,0.22793527 0 0 1 0.1226228,-0.0358 0.22793532,0.22793527 0 0 1 0.2279065,0.22791 0.22793532,0.22793527 0 0 1 -0.2279065,0.22796 0.22793532,0.22793527 0 0 1 -0.2278065,-0.22471 c -0.2198212,-0.11987 -0.494667,-0.0838 -0.6759745,0.0937 -0.126392,0.12401 -0.1852981,0.30124 -0.1583502,0.4762 l -0.2310042,-0.0461 c -0.00924,-0.21238 0.064683,-0.42614 0.2283562,-0.58838 0.1507622,-0.14787 0.3458808,-0.2235 0.5423581,-0.22751 z m 0.5728894,0.75338 0.2310045,0.0462 c 0.00924,0.21237 -0.064683,0.42613 -0.2283562,0.58838 -0.2562713,0.25134 -0.6406337,0.29388 -0.9421568,0.13076 a 0.22793532,0.22793527 0 0 1 -0.1226228,0.0358 0.22793532,0.22793527 0 0 1 -0.2279065,-0.22795 0.22793532,0.22793527 0 0 1 0.2279065,-0.22791 0.22793532,0.22793527 0 0 1 0.2278065,0.22471 c 0.2198212,0.11986 0.4946671,0.0838 0.6759745,-0.0937 0.126392,-0.12402 0.185298,-0.3013 0.1583503,-0.47625 z"
       style="opacity:1;fill:#f34f29;fill-opacity:1;stroke:none;stroke-width:0.05501859;stroke-miterlimit:4;stroke-dasharray:none;stroke-opacity:1" />
  </g>
</svg>
